<?xml version="1.0" standalone="no"?>
<!DOCTYPE svg PUBLIC "-//W3C//DTD SVG 20010904//EN"
 "http://www.w3.org/TR/2001/REC-SVG-20010904/DTD/svg10.dtd">
<svg version="1.0" xmlns="http://www.w3.org/2000/svg"
 width="1280.000000pt" height="1280.000000pt" viewBox="0 0 1280.000000 1280.000000"
 preserveAspectRatio="xMidYMid meet">
<metadata>
Created by potrace 1.15, written by Peter Selinger 2001-2017
</metadata>
<g transform="translate(0.000000,1280.000000) scale(0.100000,-0.100000)"
fill="#f44336" stroke="none">
<path d="M6030 12664 c-418 -24 -930 -112 -1344 -230 -2072 -591 -3686 -2187
-4300 -4252 -133 -446 -215 -910 -247 -1392 -23 -356 -3 -893 47 -1245 268
-1903 1366 -3557 3009 -4537 703 -419 1543 -713 2350 -822 319 -43 445 -50
850 -51 405 0 496 5 815 46 727 92 1498 339 2143 685 1064 571 1899 1389 2520
2465 64 111 115 186 154 227 69 72 111 139 164 262 55 127 90 255 88 315 -2
38 13 99 65 259 167 522 248 899 301 1411 22 208 31 778 16 997 -40 570 -129
1039 -296 1543 -404 1228 -1165 2293 -2190 3065 -785 591 -1708 993 -2670
1164 -402 71 -582 87 -1030 90 -209 2 -409 2 -445 0z"/>
</g>
</svg>
