<?xml version="1.0" ?><svg viewBox="0 0 48 48" xmlns="http://www.w3.org/2000/svg"><defs><style>.cls-1{fill:#db5669;}.cls-2{fill:#f26674;}.cls-3{fill:#c4455e;}.cls-4{fill:#231f20;}</style></defs><title/><g data-name="Virus Corona" id="Virus_Corona"><path class="cls-1" d="M42,24A18,18,0,0,1,24,42C6.92,42-.48,20.39,12.86,9.86,24.54.66,42,8.89,42,24Z"/><path class="cls-2" d="M42,24a18,18,0,0,1-3.86,11.14A18,18,0,0,1,27,39C11.89,39,3.66,21.54,12.86,9.86,24.54.66,42,8.89,42,24Z"/><path class="cls-3" d="M25,21a6,6,0,1,1-9.12-5.12A6,6,0,0,1,25,21Z"/><path class="cls-1" d="M24.12,24.12c-5.3,3.26-11.53-2.9-8.24-8.24C21.2,12.6,27.39,18.81,24.12,24.12Z"/><path class="cls-3" d="M33,30a3,3,0,1,1-3.87-2.87A3,3,0,0,1,33,30Z"/><path class="cls-1" d="M32.87,30.87a3,3,0,0,1-3.74-3.74A3,3,0,0,1,32.87,30.87Z"/><path class="cls-4" d="M47.79,20.87a1,1,0,0,0-2,.26c.08.62.13,1.25.16,1.87H43a18.69,18.69,0,0,0-2.05-7.63l2.61-1.51c.8,1.53.83,2.31,1.73,2.31a1,1,0,0,0,.92-1.38A23.88,23.88,0,0,0,43,9.37a1,1,0,0,0-1.58,1.22c.38.5.73,1,1.07,1.54L39.9,13.64a19,19,0,0,0-5.23-5.35l1.55-2.57C37.85,6.81,37.83,7,38.37,7A1,1,0,0,0,39,5.26,23.82,23.82,0,0,0,33.63,2a1,1,0,0,0-.8,1.83q.87.39,1.68.84L33,7.25a18.94,18.94,0,0,0-8-2.2V2c1.42.07,1.79.17,2,.17a1,1,0,0,0,.13-2,23.42,23.42,0,0,0-6.26,0,1,1,0,0,0,.26,2c.62-.08,1.25-.13,1.87-.16v3a18.82,18.82,0,0,0-8,2.24L13.39,4.74c.55-.3,1.1-.59,1.68-.84a1,1,0,0,0-.81-1.83A23.06,23.06,0,0,0,8.92,5.34a1,1,0,0,0,1.25,1.55c.49-.39,1-.76,1.52-1.11l1.56,2.57a19,19,0,0,0-5.09,5.18L5.57,12c.34-.52.69-1,1.08-1.53A1,1,0,0,0,5.07,9.25a23.69,23.69,0,0,0-3.17,5.4,1,1,0,0,0,1.84.78c.25-.58.52-1.14.81-1.7l2.6,1.53A18.89,18.89,0,0,0,5.05,23H2c0-.62.08-1.25.16-1.87a1,1,0,0,0-2-.26,23.43,23.43,0,0,0,0,6.26,1,1,0,0,0,2-.26C2.11,26.25,2.06,25.62,2,25h3A18.69,18.69,0,0,0,7.1,32.63L4.49,34.14c-.29-.55-.56-1.12-.8-1.7a1,1,0,0,0-1.85.77A23.88,23.88,0,0,0,5,38.63a1,1,0,0,0,1.58-1.22c-.38-.5-.73-1-1.07-1.54L8.1,34.36a19,19,0,0,0,5.23,5.35l-1.55,2.57c-.52-.35-1-.71-1.52-1.1A1,1,0,0,0,9,42.74c1.43,1.14,4.88,3.32,5.76,3.32a1,1,0,0,0,.4-1.91q-.87-.39-1.68-.84L15,40.75A18.94,18.94,0,0,0,23,43v3c-.62,0-1.25-.08-1.87-.16a1,1,0,0,0-.26,2,23.43,23.43,0,0,0,6.26,0,1,1,0,0,0-.26-2c-.62.08-1.25.13-1.87.16V43a18.82,18.82,0,0,0,8-2.24l1.57,2.55c-.55.3-1.1.59-1.68.84A1,1,0,0,0,33.34,46c.94,0,4.32-2.2,5.74-3.36a1,1,0,0,0-1.25-1.55c-.49.39-1,.76-1.52,1.11l-1.56-2.57a19,19,0,0,0,5.09-5.18L42.43,36c-.34.52-.69,1-1.08,1.53a1,1,0,0,0,1.58,1.23,23.69,23.69,0,0,0,3.17-5.4,1,1,0,0,0-1.84-.78c-.25.58-.52,1.14-.81,1.7l-2.6-1.53A18.89,18.89,0,0,0,43,25h3c0,.62-.08,1.25-.16,1.87a1,1,0,0,0,2,.26A23.43,23.43,0,0,0,47.79,20.87ZM39,25h2A17,17,0,0,1,33.7,37.94l-1-1.67a1,1,0,0,0-1.71,1L32,39a16.91,16.91,0,0,1-15.92,0l1-1.68a1,1,0,0,0-1.71-1l-1,1.67A17,17,0,0,1,7.05,25H9a1,1,0,0,0,0-2H7.05A17,17,0,0,1,14.3,10.06c1.06,1.73,1.17,2.14,1.87,2.14A1,1,0,0,0,17,10.68L16,9A16.91,16.91,0,0,1,31.92,9l-1,1.68a1,1,0,0,0,.85,1.52c.76,0,.92-.58,1.87-2.16A17,17,0,0,1,41,23H39A1,1,0,0,0,39,25Z"/><path class="cls-4" d="M19,14a7,7,0,1,0,7,7A7,7,0,0,0,19,14Zm0,12a5,5,0,1,1,5-5A5,5,0,0,1,19,26Z"/><path class="cls-4" d="M30,26a4,4,0,1,0,4,4A4,4,0,0,0,30,26Zm0,6a2,2,0,1,1,2-2A2,2,0,0,1,30,32Z"/></g></svg>